<mxfile host="app.diagrams.net" modified="2024-02-08T21:07:23.378Z" agent="Mozilla/5.0 (X11; Linux x86_64) AppleWebKit/537.36 (KHTML, like Gecko) Chrome/108.0.0.0 Safari/537.36" etag="7ZfMdRf1i2WjMrsqH9tq" version="23.1.2" type="github">
  <diagram id="C5RBs43oDa-KdzZeNtuy" name="Page-1">
    <mxGraphModel dx="1434" dy="773" grid="1" gridSize="10" guides="1" tooltips="1" connect="1" arrows="1" fold="1" page="1" pageScale="1" pageWidth="827" pageHeight="1169" math="0" shadow="0">
      <root>
        <mxCell id="WIyWlLk6GJQsqaUBKTNV-0" />
        <mxCell id="WIyWlLk6GJQsqaUBKTNV-1" parent="WIyWlLk6GJQsqaUBKTNV-0" />
        <mxCell id="19GAgHuE4jPKgQZACqqg-97" value="" style="edgeStyle=orthogonalEdgeStyle;rounded=0;orthogonalLoop=1;jettySize=auto;html=1;" edge="1" parent="WIyWlLk6GJQsqaUBKTNV-1" source="19GAgHuE4jPKgQZACqqg-0" target="19GAgHuE4jPKgQZACqqg-18">
          <mxGeometry relative="1" as="geometry" />
        </mxCell>
        <mxCell id="19GAgHuE4jPKgQZACqqg-0" value="AWS S3 Bucket" style="shape=cube;whiteSpace=wrap;html=1;boundedLbl=1;backgroundOutline=1;darkOpacity=0.05;darkOpacity2=0.1;" vertex="1" parent="WIyWlLk6GJQsqaUBKTNV-1">
          <mxGeometry x="40" y="80" width="120" height="80" as="geometry" />
        </mxCell>
        <mxCell id="19GAgHuE4jPKgQZACqqg-92" value="" style="edgeStyle=orthogonalEdgeStyle;rounded=0;orthogonalLoop=1;jettySize=auto;html=1;" edge="1" parent="WIyWlLk6GJQsqaUBKTNV-1" source="19GAgHuE4jPKgQZACqqg-2" target="19GAgHuE4jPKgQZACqqg-4">
          <mxGeometry relative="1" as="geometry" />
        </mxCell>
        <mxCell id="19GAgHuE4jPKgQZACqqg-2" value="AWS SageMaker" style="shape=cube;whiteSpace=wrap;html=1;boundedLbl=1;backgroundOutline=1;darkOpacity=0.05;darkOpacity2=0.1;" vertex="1" parent="WIyWlLk6GJQsqaUBKTNV-1">
          <mxGeometry x="240" y="80" width="120" height="80" as="geometry" />
        </mxCell>
        <mxCell id="19GAgHuE4jPKgQZACqqg-94" value="" style="edgeStyle=orthogonalEdgeStyle;rounded=0;orthogonalLoop=1;jettySize=auto;html=1;" edge="1" parent="WIyWlLk6GJQsqaUBKTNV-1" source="19GAgHuE4jPKgQZACqqg-4" target="19GAgHuE4jPKgQZACqqg-5">
          <mxGeometry relative="1" as="geometry" />
        </mxCell>
        <mxCell id="19GAgHuE4jPKgQZACqqg-4" value="SageMaker Ground Truth" style="rounded=1;whiteSpace=wrap;html=1;fontSize=12;glass=0;strokeWidth=1;shadow=0;" vertex="1" parent="WIyWlLk6GJQsqaUBKTNV-1">
          <mxGeometry x="240" y="200" width="120" height="40" as="geometry" />
        </mxCell>
        <mxCell id="19GAgHuE4jPKgQZACqqg-95" value="" style="edgeStyle=orthogonalEdgeStyle;rounded=0;orthogonalLoop=1;jettySize=auto;html=1;" edge="1" parent="WIyWlLk6GJQsqaUBKTNV-1" source="19GAgHuE4jPKgQZACqqg-5" target="19GAgHuE4jPKgQZACqqg-36">
          <mxGeometry relative="1" as="geometry" />
        </mxCell>
        <mxCell id="19GAgHuE4jPKgQZACqqg-5" value="Labeling jobs" style="rounded=1;whiteSpace=wrap;html=1;fontSize=12;glass=0;strokeWidth=1;shadow=0;" vertex="1" parent="WIyWlLk6GJQsqaUBKTNV-1">
          <mxGeometry x="240" y="280" width="120" height="40" as="geometry" />
        </mxCell>
        <mxCell id="19GAgHuE4jPKgQZACqqg-9" value="Fill up &quot;S3 location for input datasets&quot;" style="edgeStyle=orthogonalEdgeStyle;rounded=0;html=1;jettySize=auto;orthogonalLoop=1;fontSize=11;endArrow=block;endFill=0;endSize=8;strokeWidth=1;shadow=0;labelBackgroundColor=none;exitX=1;exitY=0.75;exitDx=0;exitDy=0;entryX=0;entryY=0.75;entryDx=0;entryDy=0;" edge="1" parent="WIyWlLk6GJQsqaUBKTNV-1" source="19GAgHuE4jPKgQZACqqg-45" target="19GAgHuE4jPKgQZACqqg-46">
          <mxGeometry x="-1" y="-36" relative="1" as="geometry">
            <mxPoint x="-10" y="-1" as="offset" />
            <mxPoint x="100" y="560" as="sourcePoint" />
            <mxPoint x="260" y="600" as="targetPoint" />
          </mxGeometry>
        </mxCell>
        <mxCell id="19GAgHuE4jPKgQZACqqg-49" value="" style="edgeStyle=orthogonalEdgeStyle;rounded=0;orthogonalLoop=1;jettySize=auto;html=1;" edge="1" parent="WIyWlLk6GJQsqaUBKTNV-1" source="19GAgHuE4jPKgQZACqqg-16" target="19GAgHuE4jPKgQZACqqg-48">
          <mxGeometry relative="1" as="geometry" />
        </mxCell>
        <mxCell id="19GAgHuE4jPKgQZACqqg-16" value="Complete data setup" style="rounded=1;whiteSpace=wrap;html=1;" vertex="1" parent="WIyWlLk6GJQsqaUBKTNV-1">
          <mxGeometry x="240" y="640" width="120" height="40" as="geometry" />
        </mxCell>
        <mxCell id="19GAgHuE4jPKgQZACqqg-98" value="" style="edgeStyle=orthogonalEdgeStyle;rounded=0;orthogonalLoop=1;jettySize=auto;html=1;" edge="1" parent="WIyWlLk6GJQsqaUBKTNV-1" source="19GAgHuE4jPKgQZACqqg-18" target="19GAgHuE4jPKgQZACqqg-21">
          <mxGeometry relative="1" as="geometry" />
        </mxCell>
        <mxCell id="19GAgHuE4jPKgQZACqqg-18" value="Create bucket" style="rounded=1;whiteSpace=wrap;html=1;" vertex="1" parent="WIyWlLk6GJQsqaUBKTNV-1">
          <mxGeometry x="40" y="200" width="120" height="40" as="geometry" />
        </mxCell>
        <mxCell id="19GAgHuE4jPKgQZACqqg-99" value="" style="edgeStyle=orthogonalEdgeStyle;rounded=0;orthogonalLoop=1;jettySize=auto;html=1;" edge="1" parent="WIyWlLk6GJQsqaUBKTNV-1" source="19GAgHuE4jPKgQZACqqg-21" target="19GAgHuE4jPKgQZACqqg-22">
          <mxGeometry relative="1" as="geometry" />
        </mxCell>
        <mxCell id="19GAgHuE4jPKgQZACqqg-21" value="Create folder" style="rounded=1;whiteSpace=wrap;html=1;" vertex="1" parent="WIyWlLk6GJQsqaUBKTNV-1">
          <mxGeometry x="40" y="280" width="120" height="40" as="geometry" />
        </mxCell>
        <mxCell id="19GAgHuE4jPKgQZACqqg-100" value="" style="edgeStyle=orthogonalEdgeStyle;rounded=0;orthogonalLoop=1;jettySize=auto;html=1;" edge="1" parent="WIyWlLk6GJQsqaUBKTNV-1" source="19GAgHuE4jPKgQZACqqg-22" target="19GAgHuE4jPKgQZACqqg-23">
          <mxGeometry relative="1" as="geometry" />
        </mxCell>
        <mxCell id="19GAgHuE4jPKgQZACqqg-22" value="Upload" style="rounded=1;whiteSpace=wrap;html=1;" vertex="1" parent="WIyWlLk6GJQsqaUBKTNV-1">
          <mxGeometry x="40" y="360" width="120" height="40" as="geometry" />
        </mxCell>
        <mxCell id="19GAgHuE4jPKgQZACqqg-101" value="" style="edgeStyle=orthogonalEdgeStyle;rounded=0;orthogonalLoop=1;jettySize=auto;html=1;" edge="1" parent="WIyWlLk6GJQsqaUBKTNV-1" source="19GAgHuE4jPKgQZACqqg-23" target="19GAgHuE4jPKgQZACqqg-45">
          <mxGeometry relative="1" as="geometry" />
        </mxCell>
        <mxCell id="19GAgHuE4jPKgQZACqqg-23" value="Add files" style="rounded=1;whiteSpace=wrap;html=1;" vertex="1" parent="WIyWlLk6GJQsqaUBKTNV-1">
          <mxGeometry x="40" y="440" width="120" height="40" as="geometry" />
        </mxCell>
        <mxCell id="19GAgHuE4jPKgQZACqqg-34" value="Click" style="edgeLabel;html=1;align=center;verticalAlign=middle;resizable=0;points=[];" vertex="1" connectable="0" parent="WIyWlLk6GJQsqaUBKTNV-1">
          <mxGeometry x="320" y="180" as="geometry" />
        </mxCell>
        <mxCell id="19GAgHuE4jPKgQZACqqg-35" value="Click" style="edgeLabel;html=1;align=center;verticalAlign=middle;resizable=0;points=[];" vertex="1" connectable="0" parent="WIyWlLk6GJQsqaUBKTNV-1">
          <mxGeometry x="120" y="188" as="geometry">
            <mxPoint x="197" y="69" as="offset" />
          </mxGeometry>
        </mxCell>
        <mxCell id="19GAgHuE4jPKgQZACqqg-36" value="Create labeling job" style="rounded=1;whiteSpace=wrap;html=1;fontSize=12;glass=0;strokeWidth=1;shadow=0;" vertex="1" parent="WIyWlLk6GJQsqaUBKTNV-1">
          <mxGeometry x="240" y="360" width="120" height="40" as="geometry" />
        </mxCell>
        <mxCell id="19GAgHuE4jPKgQZACqqg-39" value="Click" style="edgeLabel;html=1;align=center;verticalAlign=middle;resizable=0;points=[];" vertex="1" connectable="0" parent="WIyWlLk6GJQsqaUBKTNV-1">
          <mxGeometry x="320" y="340" as="geometry" />
        </mxCell>
        <mxCell id="19GAgHuE4jPKgQZACqqg-41" value="Fill up" style="text;html=1;align=center;verticalAlign=middle;resizable=0;points=[];autosize=1;strokeColor=none;fillColor=none;" vertex="1" parent="WIyWlLk6GJQsqaUBKTNV-1">
          <mxGeometry x="290" y="687" width="60" height="30" as="geometry" />
        </mxCell>
        <mxCell id="19GAgHuE4jPKgQZACqqg-42" value="" style="endArrow=classic;html=1;rounded=0;exitX=0.5;exitY=1;exitDx=0;exitDy=0;entryX=0.5;entryY=0;entryDx=0;entryDy=0;" edge="1" parent="WIyWlLk6GJQsqaUBKTNV-1" source="19GAgHuE4jPKgQZACqqg-46" target="19GAgHuE4jPKgQZACqqg-16">
          <mxGeometry width="50" height="50" relative="1" as="geometry">
            <mxPoint x="300" y="640" as="sourcePoint" />
            <mxPoint x="490" y="510" as="targetPoint" />
          </mxGeometry>
        </mxCell>
        <mxCell id="19GAgHuE4jPKgQZACqqg-43" value="Click" style="text;html=1;align=center;verticalAlign=middle;resizable=0;points=[];autosize=1;strokeColor=none;fillColor=none;" vertex="1" parent="WIyWlLk6GJQsqaUBKTNV-1">
          <mxGeometry x="290" y="600" width="50" height="30" as="geometry" />
        </mxCell>
        <mxCell id="19GAgHuE4jPKgQZACqqg-45" value="(Upload images in the S3 Bucket)" style="shape=process;whiteSpace=wrap;html=1;backgroundOutline=1;" vertex="1" parent="WIyWlLk6GJQsqaUBKTNV-1">
          <mxGeometry x="40" y="520" width="120" height="60" as="geometry" />
        </mxCell>
        <mxCell id="19GAgHuE4jPKgQZACqqg-46" value="&lt;span style=&quot;color: rgb(0, 0, 0); font-family: Helvetica; font-size: 12px; font-style: normal; font-variant-ligatures: normal; font-variant-caps: normal; font-weight: 400; letter-spacing: normal; orphans: 2; text-align: center; text-indent: 0px; text-transform: none; widows: 2; word-spacing: 0px; -webkit-text-stroke-width: 0px; background-color: rgb(251, 251, 251); text-decoration-thickness: initial; text-decoration-style: initial; text-decoration-color: initial; float: none; display: inline !important;&quot;&gt;Fill up the &quot;Job overview&quot;&lt;/span&gt;" style="shape=process;whiteSpace=wrap;html=1;backgroundOutline=1;" vertex="1" parent="WIyWlLk6GJQsqaUBKTNV-1">
          <mxGeometry x="240" y="520" width="120" height="60" as="geometry" />
        </mxCell>
        <mxCell id="19GAgHuE4jPKgQZACqqg-51" value="" style="edgeStyle=orthogonalEdgeStyle;rounded=0;orthogonalLoop=1;jettySize=auto;html=1;" edge="1" parent="WIyWlLk6GJQsqaUBKTNV-1" source="19GAgHuE4jPKgQZACqqg-48" target="19GAgHuE4jPKgQZACqqg-50">
          <mxGeometry relative="1" as="geometry" />
        </mxCell>
        <mxCell id="19GAgHuE4jPKgQZACqqg-48" value="&lt;span style=&quot;color: rgb(0, 0, 0); font-family: Helvetica; font-size: 12px; font-style: normal; font-variant-ligatures: normal; font-variant-caps: normal; font-weight: 400; letter-spacing: normal; orphans: 2; text-align: center; text-indent: 0px; text-transform: none; widows: 2; word-spacing: 0px; -webkit-text-stroke-width: 0px; background-color: rgb(251, 251, 251); text-decoration-thickness: initial; text-decoration-style: initial; text-decoration-color: initial; float: none; display: inline !important;&quot;&gt;Fill up the &quot;Task type&quot;&lt;/span&gt;" style="shape=process;whiteSpace=wrap;html=1;backgroundOutline=1;" vertex="1" parent="WIyWlLk6GJQsqaUBKTNV-1">
          <mxGeometry x="240" y="720" width="120" height="60" as="geometry" />
        </mxCell>
        <mxCell id="19GAgHuE4jPKgQZACqqg-54" value="" style="edgeStyle=orthogonalEdgeStyle;rounded=0;orthogonalLoop=1;jettySize=auto;html=1;" edge="1" parent="WIyWlLk6GJQsqaUBKTNV-1" source="19GAgHuE4jPKgQZACqqg-50" target="19GAgHuE4jPKgQZACqqg-53">
          <mxGeometry relative="1" as="geometry" />
        </mxCell>
        <mxCell id="19GAgHuE4jPKgQZACqqg-50" value="Next" style="rounded=1;whiteSpace=wrap;html=1;" vertex="1" parent="WIyWlLk6GJQsqaUBKTNV-1">
          <mxGeometry x="240" y="840" width="120" height="40" as="geometry" />
        </mxCell>
        <mxCell id="19GAgHuE4jPKgQZACqqg-52" value="Click" style="text;html=1;align=center;verticalAlign=middle;resizable=0;points=[];autosize=1;strokeColor=none;fillColor=none;" vertex="1" parent="WIyWlLk6GJQsqaUBKTNV-1">
          <mxGeometry x="293" y="800" width="50" height="30" as="geometry" />
        </mxCell>
        <mxCell id="19GAgHuE4jPKgQZACqqg-57" value="" style="edgeStyle=orthogonalEdgeStyle;rounded=0;orthogonalLoop=1;jettySize=auto;html=1;" edge="1" parent="WIyWlLk6GJQsqaUBKTNV-1" source="19GAgHuE4jPKgQZACqqg-53" target="19GAgHuE4jPKgQZACqqg-56">
          <mxGeometry relative="1" as="geometry" />
        </mxCell>
        <mxCell id="19GAgHuE4jPKgQZACqqg-53" value="Private" style="rounded=1;whiteSpace=wrap;html=1;" vertex="1" parent="WIyWlLk6GJQsqaUBKTNV-1">
          <mxGeometry x="240" y="920" width="120" height="40" as="geometry" />
        </mxCell>
        <mxCell id="19GAgHuE4jPKgQZACqqg-61" value="" style="edgeStyle=orthogonalEdgeStyle;rounded=0;orthogonalLoop=1;jettySize=auto;html=1;" edge="1" parent="WIyWlLk6GJQsqaUBKTNV-1" source="19GAgHuE4jPKgQZACqqg-56" target="19GAgHuE4jPKgQZACqqg-60">
          <mxGeometry relative="1" as="geometry" />
        </mxCell>
        <mxCell id="19GAgHuE4jPKgQZACqqg-56" value="The &quot;Bounding box labeling tool&quot;" style="rounded=1;whiteSpace=wrap;html=1;" vertex="1" parent="WIyWlLk6GJQsqaUBKTNV-1">
          <mxGeometry x="240" y="1000" width="120" height="40" as="geometry" />
        </mxCell>
        <mxCell id="19GAgHuE4jPKgQZACqqg-58" value="Click" style="text;html=1;align=center;verticalAlign=middle;resizable=0;points=[];autosize=1;strokeColor=none;fillColor=none;" vertex="1" parent="WIyWlLk6GJQsqaUBKTNV-1">
          <mxGeometry x="293" y="887" width="50" height="30" as="geometry" />
        </mxCell>
        <mxCell id="19GAgHuE4jPKgQZACqqg-59" value="Fill up" style="text;html=1;align=center;verticalAlign=middle;resizable=0;points=[];autosize=1;strokeColor=none;fillColor=none;" vertex="1" parent="WIyWlLk6GJQsqaUBKTNV-1">
          <mxGeometry x="291" y="963" width="60" height="30" as="geometry" />
        </mxCell>
        <mxCell id="19GAgHuE4jPKgQZACqqg-117" value="" style="edgeStyle=orthogonalEdgeStyle;rounded=0;orthogonalLoop=1;jettySize=auto;html=1;" edge="1" parent="WIyWlLk6GJQsqaUBKTNV-1" source="19GAgHuE4jPKgQZACqqg-60" target="19GAgHuE4jPKgQZACqqg-116">
          <mxGeometry relative="1" as="geometry" />
        </mxCell>
        <mxCell id="19GAgHuE4jPKgQZACqqg-60" value="Create" style="rounded=1;whiteSpace=wrap;html=1;" vertex="1" parent="WIyWlLk6GJQsqaUBKTNV-1">
          <mxGeometry x="240" y="1080" width="120" height="40" as="geometry" />
        </mxCell>
        <mxCell id="19GAgHuE4jPKgQZACqqg-62" value="Click" style="text;html=1;align=center;verticalAlign=middle;resizable=0;points=[];autosize=1;strokeColor=none;fillColor=none;" vertex="1" parent="WIyWlLk6GJQsqaUBKTNV-1">
          <mxGeometry x="295" y="1042" width="50" height="30" as="geometry" />
        </mxCell>
        <mxCell id="19GAgHuE4jPKgQZACqqg-110" value="" style="edgeStyle=orthogonalEdgeStyle;rounded=0;orthogonalLoop=1;jettySize=auto;html=1;" edge="1" parent="WIyWlLk6GJQsqaUBKTNV-1" source="19GAgHuE4jPKgQZACqqg-63" target="19GAgHuE4jPKgQZACqqg-109">
          <mxGeometry relative="1" as="geometry" />
        </mxCell>
        <mxCell id="19GAgHuE4jPKgQZACqqg-63" value="(The worker / User)" style="shape=cube;whiteSpace=wrap;html=1;boundedLbl=1;backgroundOutline=1;darkOpacity=0.05;darkOpacity2=0.1;" vertex="1" parent="WIyWlLk6GJQsqaUBKTNV-1">
          <mxGeometry x="640" y="80" width="120" height="80" as="geometry" />
        </mxCell>
        <mxCell id="19GAgHuE4jPKgQZACqqg-71" value="" style="edgeStyle=orthogonalEdgeStyle;rounded=0;orthogonalLoop=1;jettySize=auto;html=1;" edge="1" parent="WIyWlLk6GJQsqaUBKTNV-1" source="19GAgHuE4jPKgQZACqqg-64" target="19GAgHuE4jPKgQZACqqg-65">
          <mxGeometry relative="1" as="geometry" />
        </mxCell>
        <mxCell id="19GAgHuE4jPKgQZACqqg-64" value="Labeling workforces" style="rounded=1;whiteSpace=wrap;html=1;" vertex="1" parent="WIyWlLk6GJQsqaUBKTNV-1">
          <mxGeometry x="440" y="280" width="120" height="40" as="geometry" />
        </mxCell>
        <mxCell id="19GAgHuE4jPKgQZACqqg-72" value="" style="edgeStyle=orthogonalEdgeStyle;rounded=0;orthogonalLoop=1;jettySize=auto;html=1;" edge="1" parent="WIyWlLk6GJQsqaUBKTNV-1" source="19GAgHuE4jPKgQZACqqg-65" target="19GAgHuE4jPKgQZACqqg-66">
          <mxGeometry relative="1" as="geometry" />
        </mxCell>
        <mxCell id="19GAgHuE4jPKgQZACqqg-65" value="Private Teams --&amp;gt; &quot;the team&quot;" style="rounded=1;whiteSpace=wrap;html=1;" vertex="1" parent="WIyWlLk6GJQsqaUBKTNV-1">
          <mxGeometry x="440" y="360" width="120" height="40" as="geometry" />
        </mxCell>
        <mxCell id="19GAgHuE4jPKgQZACqqg-73" value="" style="edgeStyle=orthogonalEdgeStyle;rounded=0;orthogonalLoop=1;jettySize=auto;html=1;" edge="1" parent="WIyWlLk6GJQsqaUBKTNV-1" source="19GAgHuE4jPKgQZACqqg-66" target="19GAgHuE4jPKgQZACqqg-67">
          <mxGeometry relative="1" as="geometry" />
        </mxCell>
        <mxCell id="19GAgHuE4jPKgQZACqqg-66" value="Workers" style="rounded=1;whiteSpace=wrap;html=1;" vertex="1" parent="WIyWlLk6GJQsqaUBKTNV-1">
          <mxGeometry x="440" y="440" width="120" height="40" as="geometry" />
        </mxCell>
        <mxCell id="19GAgHuE4jPKgQZACqqg-74" value="" style="edgeStyle=orthogonalEdgeStyle;rounded=0;orthogonalLoop=1;jettySize=auto;html=1;" edge="1" parent="WIyWlLk6GJQsqaUBKTNV-1" source="19GAgHuE4jPKgQZACqqg-67" target="19GAgHuE4jPKgQZACqqg-69">
          <mxGeometry relative="1" as="geometry" />
        </mxCell>
        <mxCell id="19GAgHuE4jPKgQZACqqg-67" value="Add workers to team" style="rounded=1;whiteSpace=wrap;html=1;" vertex="1" parent="WIyWlLk6GJQsqaUBKTNV-1">
          <mxGeometry x="440" y="520" width="120" height="40" as="geometry" />
        </mxCell>
        <mxCell id="19GAgHuE4jPKgQZACqqg-75" value="" style="edgeStyle=orthogonalEdgeStyle;rounded=0;orthogonalLoop=1;jettySize=auto;html=1;" edge="1" parent="WIyWlLk6GJQsqaUBKTNV-1" source="19GAgHuE4jPKgQZACqqg-69" target="19GAgHuE4jPKgQZACqqg-70">
          <mxGeometry relative="1" as="geometry" />
        </mxCell>
        <mxCell id="19GAgHuE4jPKgQZACqqg-69" value="(Chose your workers)" style="shape=process;whiteSpace=wrap;html=1;backgroundOutline=1;" vertex="1" parent="WIyWlLk6GJQsqaUBKTNV-1">
          <mxGeometry x="440" y="600" width="120" height="60" as="geometry" />
        </mxCell>
        <mxCell id="19GAgHuE4jPKgQZACqqg-70" value="Add workers to team" style="rounded=1;whiteSpace=wrap;html=1;" vertex="1" parent="WIyWlLk6GJQsqaUBKTNV-1">
          <mxGeometry x="440" y="720" width="120" height="40" as="geometry" />
        </mxCell>
        <mxCell id="19GAgHuE4jPKgQZACqqg-76" value="Choose" style="text;html=1;align=center;verticalAlign=middle;resizable=0;points=[];autosize=1;strokeColor=none;fillColor=none;" vertex="1" parent="WIyWlLk6GJQsqaUBKTNV-1">
          <mxGeometry x="493" y="318" width="60" height="30" as="geometry" />
        </mxCell>
        <mxCell id="19GAgHuE4jPKgQZACqqg-77" value="Click" style="text;html=1;align=center;verticalAlign=middle;resizable=0;points=[];autosize=1;strokeColor=none;fillColor=none;" vertex="1" parent="WIyWlLk6GJQsqaUBKTNV-1">
          <mxGeometry x="493" y="400" width="50" height="30" as="geometry" />
        </mxCell>
        <mxCell id="19GAgHuE4jPKgQZACqqg-78" value="Click" style="text;html=1;align=center;verticalAlign=middle;resizable=0;points=[];autosize=1;strokeColor=none;fillColor=none;" vertex="1" parent="WIyWlLk6GJQsqaUBKTNV-1">
          <mxGeometry x="493" y="478" width="50" height="30" as="geometry" />
        </mxCell>
        <mxCell id="19GAgHuE4jPKgQZACqqg-79" value="Choose" style="text;html=1;align=center;verticalAlign=middle;resizable=0;points=[];autosize=1;strokeColor=none;fillColor=none;" vertex="1" parent="WIyWlLk6GJQsqaUBKTNV-1">
          <mxGeometry x="494" y="558" width="60" height="30" as="geometry" />
        </mxCell>
        <mxCell id="19GAgHuE4jPKgQZACqqg-80" value="Click" style="text;html=1;align=center;verticalAlign=middle;resizable=0;points=[];autosize=1;strokeColor=none;fillColor=none;" vertex="1" parent="WIyWlLk6GJQsqaUBKTNV-1">
          <mxGeometry x="498" y="660" width="50" height="30" as="geometry" />
        </mxCell>
        <mxCell id="19GAgHuE4jPKgQZACqqg-84" value="" style="endArrow=none;dashed=1;html=1;dashPattern=1 3;strokeWidth=2;rounded=0;exitX=1;exitY=0.5;exitDx=0;exitDy=0;entryX=0.008;entryY=0.475;entryDx=0;entryDy=0;entryPerimeter=0;" edge="1" parent="WIyWlLk6GJQsqaUBKTNV-1" source="19GAgHuE4jPKgQZACqqg-60" target="19GAgHuE4jPKgQZACqqg-88">
          <mxGeometry width="50" height="50" relative="1" as="geometry">
            <mxPoint x="440" y="650" as="sourcePoint" />
            <mxPoint x="400" y="120" as="targetPoint" />
            <Array as="points">
              <mxPoint x="400" y="1100" />
              <mxPoint x="400" y="300" />
              <mxPoint x="400" y="120" />
            </Array>
          </mxGeometry>
        </mxCell>
        <mxCell id="19GAgHuE4jPKgQZACqqg-85" value="After creating &lt;br&gt;the&amp;nbsp;Labeling job" style="text;html=1;align=center;verticalAlign=middle;resizable=0;points=[];autosize=1;strokeColor=none;fillColor=none;" vertex="1" parent="WIyWlLk6GJQsqaUBKTNV-1">
          <mxGeometry x="353" y="1080" width="110" height="40" as="geometry" />
        </mxCell>
        <mxCell id="19GAgHuE4jPKgQZACqqg-93" value="" style="edgeStyle=orthogonalEdgeStyle;rounded=0;orthogonalLoop=1;jettySize=auto;html=1;" edge="1" parent="WIyWlLk6GJQsqaUBKTNV-1" source="19GAgHuE4jPKgQZACqqg-88" target="19GAgHuE4jPKgQZACqqg-89">
          <mxGeometry relative="1" as="geometry" />
        </mxCell>
        <mxCell id="19GAgHuE4jPKgQZACqqg-88" value="AWS SageMaker" style="shape=cube;whiteSpace=wrap;html=1;boundedLbl=1;backgroundOutline=1;darkOpacity=0.05;darkOpacity2=0.1;" vertex="1" parent="WIyWlLk6GJQsqaUBKTNV-1">
          <mxGeometry x="440" y="80" width="120" height="80" as="geometry" />
        </mxCell>
        <mxCell id="19GAgHuE4jPKgQZACqqg-91" value="" style="edgeStyle=orthogonalEdgeStyle;rounded=0;orthogonalLoop=1;jettySize=auto;html=1;entryX=0.5;entryY=0;entryDx=0;entryDy=0;" edge="1" parent="WIyWlLk6GJQsqaUBKTNV-1" source="19GAgHuE4jPKgQZACqqg-89" target="19GAgHuE4jPKgQZACqqg-64">
          <mxGeometry relative="1" as="geometry" />
        </mxCell>
        <mxCell id="19GAgHuE4jPKgQZACqqg-89" value="SageMaker Ground Truth" style="rounded=1;whiteSpace=wrap;html=1;fontSize=12;glass=0;strokeWidth=1;shadow=0;" vertex="1" parent="WIyWlLk6GJQsqaUBKTNV-1">
          <mxGeometry x="440" y="200" width="120" height="40" as="geometry" />
        </mxCell>
        <mxCell id="19GAgHuE4jPKgQZACqqg-96" value="" style="endArrow=classic;html=1;rounded=0;exitX=0.5;exitY=1;exitDx=0;exitDy=0;entryX=0.5;entryY=0;entryDx=0;entryDy=0;" edge="1" parent="WIyWlLk6GJQsqaUBKTNV-1" source="19GAgHuE4jPKgQZACqqg-36" target="19GAgHuE4jPKgQZACqqg-46">
          <mxGeometry width="50" height="50" relative="1" as="geometry">
            <mxPoint x="440" y="440" as="sourcePoint" />
            <mxPoint x="490" y="390" as="targetPoint" />
          </mxGeometry>
        </mxCell>
        <mxCell id="19GAgHuE4jPKgQZACqqg-102" value="Click" style="text;html=1;align=center;verticalAlign=middle;resizable=0;points=[];autosize=1;strokeColor=none;fillColor=none;" vertex="1" parent="WIyWlLk6GJQsqaUBKTNV-1">
          <mxGeometry x="85" y="158" width="50" height="30" as="geometry" />
        </mxCell>
        <mxCell id="19GAgHuE4jPKgQZACqqg-103" value="Click" style="text;html=1;align=center;verticalAlign=middle;resizable=0;points=[];autosize=1;strokeColor=none;fillColor=none;" vertex="1" parent="WIyWlLk6GJQsqaUBKTNV-1">
          <mxGeometry x="85" y="238" width="50" height="30" as="geometry" />
        </mxCell>
        <mxCell id="19GAgHuE4jPKgQZACqqg-104" value="Click" style="text;html=1;align=center;verticalAlign=middle;resizable=0;points=[];autosize=1;strokeColor=none;fillColor=none;" vertex="1" parent="WIyWlLk6GJQsqaUBKTNV-1">
          <mxGeometry x="85" y="318" width="50" height="30" as="geometry" />
        </mxCell>
        <mxCell id="19GAgHuE4jPKgQZACqqg-105" value="Click" style="text;html=1;align=center;verticalAlign=middle;resizable=0;points=[];autosize=1;strokeColor=none;fillColor=none;" vertex="1" parent="WIyWlLk6GJQsqaUBKTNV-1">
          <mxGeometry x="85" y="398" width="50" height="30" as="geometry" />
        </mxCell>
        <mxCell id="19GAgHuE4jPKgQZACqqg-106" value="Click" style="text;html=1;align=center;verticalAlign=middle;resizable=0;points=[];autosize=1;strokeColor=none;fillColor=none;" vertex="1" parent="WIyWlLk6GJQsqaUBKTNV-1">
          <mxGeometry x="85" y="478" width="50" height="30" as="geometry" />
        </mxCell>
        <mxCell id="19GAgHuE4jPKgQZACqqg-107" value="Click" style="text;html=1;align=center;verticalAlign=middle;resizable=0;points=[];autosize=1;strokeColor=none;fillColor=none;" vertex="1" parent="WIyWlLk6GJQsqaUBKTNV-1">
          <mxGeometry x="485" y="158" width="50" height="30" as="geometry" />
        </mxCell>
        <mxCell id="19GAgHuE4jPKgQZACqqg-108" value="Click" style="text;html=1;align=center;verticalAlign=middle;resizable=0;points=[];autosize=1;strokeColor=none;fillColor=none;" vertex="1" parent="WIyWlLk6GJQsqaUBKTNV-1">
          <mxGeometry x="485" y="238" width="50" height="30" as="geometry" />
        </mxCell>
        <mxCell id="19GAgHuE4jPKgQZACqqg-113" value="" style="edgeStyle=orthogonalEdgeStyle;rounded=0;orthogonalLoop=1;jettySize=auto;html=1;" edge="1" parent="WIyWlLk6GJQsqaUBKTNV-1" source="19GAgHuE4jPKgQZACqqg-109" target="19GAgHuE4jPKgQZACqqg-111">
          <mxGeometry relative="1" as="geometry" />
        </mxCell>
        <mxCell id="19GAgHuE4jPKgQZACqqg-109" value="(Log into your account with AWS link)" style="shape=process;whiteSpace=wrap;html=1;backgroundOutline=1;" vertex="1" parent="WIyWlLk6GJQsqaUBKTNV-1">
          <mxGeometry x="640" y="200" width="120" height="60" as="geometry" />
        </mxCell>
        <mxCell id="19GAgHuE4jPKgQZACqqg-114" value="" style="edgeStyle=orthogonalEdgeStyle;rounded=0;orthogonalLoop=1;jettySize=auto;html=1;" edge="1" parent="WIyWlLk6GJQsqaUBKTNV-1" source="19GAgHuE4jPKgQZACqqg-111" target="19GAgHuE4jPKgQZACqqg-112">
          <mxGeometry relative="1" as="geometry" />
        </mxCell>
        <mxCell id="19GAgHuE4jPKgQZACqqg-111" value="(Select your task)" style="shape=process;whiteSpace=wrap;html=1;backgroundOutline=1;" vertex="1" parent="WIyWlLk6GJQsqaUBKTNV-1">
          <mxGeometry x="640" y="320" width="120" height="60" as="geometry" />
        </mxCell>
        <mxCell id="19GAgHuE4jPKgQZACqqg-112" value="Start working" style="rounded=1;whiteSpace=wrap;html=1;" vertex="1" parent="WIyWlLk6GJQsqaUBKTNV-1">
          <mxGeometry x="640" y="440" width="120" height="40" as="geometry" />
        </mxCell>
        <mxCell id="19GAgHuE4jPKgQZACqqg-115" value="Click" style="text;html=1;align=center;verticalAlign=middle;resizable=0;points=[];autosize=1;strokeColor=none;fillColor=none;" vertex="1" parent="WIyWlLk6GJQsqaUBKTNV-1">
          <mxGeometry x="695" y="388" width="50" height="30" as="geometry" />
        </mxCell>
        <mxCell id="19GAgHuE4jPKgQZACqqg-116" value="(Complete the labeling task)" style="shape=process;whiteSpace=wrap;html=1;backgroundOutline=1;" vertex="1" parent="WIyWlLk6GJQsqaUBKTNV-1">
          <mxGeometry x="240" y="1160" width="560" height="120" as="geometry" />
        </mxCell>
        <mxCell id="19GAgHuE4jPKgQZACqqg-118" value="" style="endArrow=classic;html=1;rounded=0;exitX=0.5;exitY=1;exitDx=0;exitDy=0;entryX=0.5;entryY=0;entryDx=0;entryDy=0;" edge="1" parent="WIyWlLk6GJQsqaUBKTNV-1" source="19GAgHuE4jPKgQZACqqg-70" target="19GAgHuE4jPKgQZACqqg-116">
          <mxGeometry width="50" height="50" relative="1" as="geometry">
            <mxPoint x="450" y="770" as="sourcePoint" />
            <mxPoint x="500" y="720" as="targetPoint" />
            <Array as="points">
              <mxPoint x="500" y="800" />
              <mxPoint x="500" y="960" />
              <mxPoint x="520" y="960" />
              <mxPoint x="520" y="1060" />
            </Array>
          </mxGeometry>
        </mxCell>
        <mxCell id="19GAgHuE4jPKgQZACqqg-119" value="" style="endArrow=classic;html=1;rounded=0;exitX=0.5;exitY=1;exitDx=0;exitDy=0;entryX=0.5;entryY=0;entryDx=0;entryDy=0;" edge="1" parent="WIyWlLk6GJQsqaUBKTNV-1" source="19GAgHuE4jPKgQZACqqg-112" target="19GAgHuE4jPKgQZACqqg-116">
          <mxGeometry width="50" height="50" relative="1" as="geometry">
            <mxPoint x="450" y="900" as="sourcePoint" />
            <mxPoint x="500" y="850" as="targetPoint" />
            <Array as="points">
              <mxPoint x="700" y="810" />
              <mxPoint x="700" y="1040" />
              <mxPoint x="700" y="1120" />
              <mxPoint x="520" y="1120" />
            </Array>
          </mxGeometry>
        </mxCell>
      </root>
    </mxGraphModel>
  </diagram>
</mxfile>
